<svg xmlns="http://www.w3.org/2000/svg" viewBox="0 0 128 128" role="img" aria-label="Contract Tracking Logo">
  <defs>
    <linearGradient id="g" x1="0" y1="0" x2="1" y2="1">
      <stop offset="0" stop-color="#0F355D"/>
      <stop offset="1" stop-color="#1E5EA8"/>
    </linearGradient>
  </defs>
  <rect width="128" height="128" rx="20" fill="url(#g)"/>
  <path d="M30 24h68a6 6 0 0 1 6 6v68a6 6 0 0 1-6 6H30a6 6 0 0 1-6-6V30a6 6 0 0 1 6-6z" fill="#fff" opacity="0.95"/>
  <rect x="40" y="42" width="48" height="6" rx="3" fill="#0F355D"/>
  <rect x="40" y="56" width="48" height="6" rx="3" fill="#0F355D"/>
  <rect x="40" y="70" width="30" height="6" rx="3" fill="#0F355D"/>
  <circle cx="90" cy="84" r="12" fill="#F4B400"/>
  <path d="M83 84l5 5 9-10" fill="none" stroke="#0F355D" stroke-width="3" stroke-linecap="round" stroke-linejoin="round"/>
</svg>
